<mxfile host="app.diagrams.net" modified="2023-10-22T13:56:53.609Z" agent="Mozilla/5.0 (X11; Ubuntu; Linux x86_64; rv:109.0) Gecko/20100101 Firefox/118.0" etag="3BBtwaHVZXFcZusW0772" version="22.0.6" type="device">
  <diagram name="第 1 页" id="RuPAdEbWMCYGYV-oIJMy">
    <mxGraphModel dx="994" dy="496" grid="1" gridSize="10" guides="1" tooltips="1" connect="1" arrows="1" fold="1" page="1" pageScale="1" pageWidth="827" pageHeight="1169" math="0" shadow="0">
      <root>
        <mxCell id="0" />
        <mxCell id="1" parent="0" />
        <mxCell id="GsuCEb-JJvYCm_2uKdxv-1" value="&lt;font style=&quot;font-size: 16px;&quot;&gt;S0&lt;/font&gt;" style="ellipse;whiteSpace=wrap;html=1;fontSize=16;" parent="1" vertex="1">
          <mxGeometry x="240" y="240" width="75" height="50" as="geometry" />
        </mxCell>
        <mxCell id="GsuCEb-JJvYCm_2uKdxv-2" value="&lt;div style=&quot;font-size: 16px;&quot;&gt;&lt;font style=&quot;font-size: 16px;&quot;&gt;S1&lt;/font&gt;&lt;/div&gt;" style="ellipse;whiteSpace=wrap;html=1;fontSize=16;" parent="1" vertex="1">
          <mxGeometry x="390" y="300" width="75" height="50" as="geometry" />
        </mxCell>
        <mxCell id="GsuCEb-JJvYCm_2uKdxv-3" value="&lt;div style=&quot;font-size: 16px;&quot;&gt;&lt;font style=&quot;font-size: 16px;&quot;&gt;S2&lt;/font&gt;&lt;/div&gt;" style="ellipse;whiteSpace=wrap;html=1;fontSize=16;" parent="1" vertex="1">
          <mxGeometry x="500" y="200" width="75" height="50" as="geometry" />
        </mxCell>
        <mxCell id="GsuCEb-JJvYCm_2uKdxv-4" value="" style="endArrow=classic;html=1;rounded=0;exitX=1;exitY=1;exitDx=0;exitDy=0;entryX=0;entryY=0.5;entryDx=0;entryDy=0;fontSize=16;" parent="1" source="GsuCEb-JJvYCm_2uKdxv-1" target="GsuCEb-JJvYCm_2uKdxv-2" edge="1">
          <mxGeometry relative="1" as="geometry">
            <mxPoint x="360" y="290" as="sourcePoint" />
            <mxPoint x="460" y="290" as="targetPoint" />
          </mxGeometry>
        </mxCell>
        <mxCell id="GsuCEb-JJvYCm_2uKdxv-6" value="1" style="edgeLabel;html=1;align=center;verticalAlign=middle;resizable=0;points=[];" parent="GsuCEb-JJvYCm_2uKdxv-4" vertex="1" connectable="0">
          <mxGeometry x="0.1339" y="5" relative="1" as="geometry">
            <mxPoint x="-11" as="offset" />
          </mxGeometry>
        </mxCell>
        <mxCell id="GsuCEb-JJvYCm_2uKdxv-7" value="&lt;div&gt;1&lt;/div&gt;" style="edgeLabel;html=1;align=center;verticalAlign=middle;resizable=0;points=[];fontSize=16;" parent="GsuCEb-JJvYCm_2uKdxv-4" vertex="1" connectable="0">
          <mxGeometry x="-0.0533" y="1" relative="1" as="geometry">
            <mxPoint as="offset" />
          </mxGeometry>
        </mxCell>
        <mxCell id="GsuCEb-JJvYCm_2uKdxv-11" value="" style="curved=1;endArrow=classic;html=1;rounded=0;exitX=0;exitY=1;exitDx=0;exitDy=0;entryX=1;entryY=1;entryDx=0;entryDy=0;" parent="1" source="GsuCEb-JJvYCm_2uKdxv-2" target="GsuCEb-JJvYCm_2uKdxv-2" edge="1">
          <mxGeometry width="50" height="50" relative="1" as="geometry">
            <mxPoint x="390" y="310" as="sourcePoint" />
            <mxPoint x="440" y="260" as="targetPoint" />
            <Array as="points">
              <mxPoint x="401" y="380" />
              <mxPoint x="420" y="400" />
            </Array>
          </mxGeometry>
        </mxCell>
        <mxCell id="GsuCEb-JJvYCm_2uKdxv-12" value="&lt;font style=&quot;font-size: 16px;&quot;&gt;1&lt;/font&gt;" style="edgeLabel;html=1;align=center;verticalAlign=middle;resizable=0;points=[];fontSize=12;" parent="GsuCEb-JJvYCm_2uKdxv-11" vertex="1" connectable="0">
          <mxGeometry x="0.2383" y="2" relative="1" as="geometry">
            <mxPoint x="-13" y="5" as="offset" />
          </mxGeometry>
        </mxCell>
        <mxCell id="GsuCEb-JJvYCm_2uKdxv-14" value="" style="endArrow=classic;html=1;rounded=0;exitX=1;exitY=0;exitDx=0;exitDy=0;entryX=0;entryY=1;entryDx=0;entryDy=0;fontSize=16;" parent="1" source="GsuCEb-JJvYCm_2uKdxv-2" target="GsuCEb-JJvYCm_2uKdxv-3" edge="1">
          <mxGeometry relative="1" as="geometry">
            <mxPoint x="314" y="293" as="sourcePoint" />
            <mxPoint x="400" y="335" as="targetPoint" />
          </mxGeometry>
        </mxCell>
        <mxCell id="GsuCEb-JJvYCm_2uKdxv-16" value="0" style="edgeLabel;html=1;align=center;verticalAlign=middle;resizable=0;points=[];fontSize=16;" parent="GsuCEb-JJvYCm_2uKdxv-14" vertex="1" connectable="0">
          <mxGeometry x="-0.0533" y="1" relative="1" as="geometry">
            <mxPoint as="offset" />
          </mxGeometry>
        </mxCell>
        <mxCell id="GsuCEb-JJvYCm_2uKdxv-17" value="" style="endArrow=classic;html=1;rounded=0;exitX=0.5;exitY=1;exitDx=0;exitDy=0;fontSize=16;entryX=1;entryY=0.5;entryDx=0;entryDy=0;" parent="1" source="GsuCEb-JJvYCm_2uKdxv-3" target="GsuCEb-JJvYCm_2uKdxv-2" edge="1">
          <mxGeometry relative="1" as="geometry">
            <mxPoint x="464" y="317" as="sourcePoint" />
            <mxPoint x="520" y="350" as="targetPoint" />
          </mxGeometry>
        </mxCell>
        <mxCell id="GsuCEb-JJvYCm_2uKdxv-18" value="1" style="edgeLabel;html=1;align=center;verticalAlign=middle;resizable=0;points=[];fontSize=16;fontColor=#FF0000;" parent="GsuCEb-JJvYCm_2uKdxv-17" vertex="1" connectable="0">
          <mxGeometry x="-0.0533" y="1" relative="1" as="geometry">
            <mxPoint as="offset" />
          </mxGeometry>
        </mxCell>
        <mxCell id="GsuCEb-JJvYCm_2uKdxv-19" value="&lt;font color=&quot;#ff0000&quot; style=&quot;font-size: 16px;&quot;&gt;OK(cover)&lt;/font&gt;" style="text;html=1;align=center;verticalAlign=middle;resizable=0;points=[];autosize=1;strokeColor=none;fillColor=none;" parent="1" vertex="1">
          <mxGeometry x="500" y="280" width="100" height="30" as="geometry" />
        </mxCell>
        <mxCell id="GsuCEb-JJvYCm_2uKdxv-20" value="" style="curved=1;endArrow=classic;html=1;rounded=0;exitX=0;exitY=0;exitDx=0;exitDy=0;entryX=1;entryY=0;entryDx=0;entryDy=0;" parent="1" source="GsuCEb-JJvYCm_2uKdxv-3" target="GsuCEb-JJvYCm_2uKdxv-1" edge="1">
          <mxGeometry width="50" height="50" relative="1" as="geometry">
            <mxPoint x="390" y="310" as="sourcePoint" />
            <mxPoint x="440" y="260" as="targetPoint" />
            <Array as="points">
              <mxPoint x="470" y="170" />
              <mxPoint x="380" y="160" />
            </Array>
          </mxGeometry>
        </mxCell>
        <mxCell id="GsuCEb-JJvYCm_2uKdxv-21" value="&lt;font style=&quot;font-size: 16px;&quot;&gt;1&lt;/font&gt;" style="edgeLabel;html=1;align=center;verticalAlign=middle;resizable=0;points=[];fontColor=#3333FF;" parent="GsuCEb-JJvYCm_2uKdxv-20" vertex="1" connectable="0">
          <mxGeometry x="-0.2843" relative="1" as="geometry">
            <mxPoint as="offset" />
          </mxGeometry>
        </mxCell>
        <mxCell id="GsuCEb-JJvYCm_2uKdxv-22" value="&lt;font style=&quot;font-size: 16px;&quot;&gt;OK(non-cover)&lt;/font&gt;" style="text;html=1;align=center;verticalAlign=middle;resizable=0;points=[];autosize=1;strokeColor=none;fillColor=none;fontColor=#3333FF;" parent="1" vertex="1">
          <mxGeometry x="435" y="140" width="130" height="30" as="geometry" />
        </mxCell>
        <mxCell id="GsuCEb-JJvYCm_2uKdxv-23" value="" style="curved=1;endArrow=classic;html=1;rounded=0;exitX=0.5;exitY=0;exitDx=0;exitDy=0;entryX=1;entryY=1;entryDx=0;entryDy=0;" parent="1" source="GsuCEb-JJvYCm_2uKdxv-1" edge="1">
          <mxGeometry width="50" height="50" relative="1" as="geometry">
            <mxPoint x="187" y="266.5" as="sourcePoint" />
            <mxPoint x="240" y="266.5" as="targetPoint" />
            <Array as="points">
              <mxPoint x="220" y="200" />
              <mxPoint x="190" y="240" />
            </Array>
          </mxGeometry>
        </mxCell>
        <mxCell id="GsuCEb-JJvYCm_2uKdxv-25" value="&lt;font style=&quot;font-size: 16px;&quot;&gt;0&lt;/font&gt;" style="edgeLabel;html=1;align=center;verticalAlign=middle;resizable=0;points=[];" parent="GsuCEb-JJvYCm_2uKdxv-23" vertex="1" connectable="0">
          <mxGeometry x="0.1758" y="2" relative="1" as="geometry">
            <mxPoint as="offset" />
          </mxGeometry>
        </mxCell>
        <mxCell id="GsuCEb-JJvYCm_2uKdxv-26" value="" style="endArrow=classic;html=1;rounded=0;exitX=0;exitY=0.5;exitDx=0;exitDy=0;entryX=1;entryY=0.5;entryDx=0;entryDy=0;" parent="1" source="GsuCEb-JJvYCm_2uKdxv-3" target="GsuCEb-JJvYCm_2uKdxv-1" edge="1">
          <mxGeometry relative="1" as="geometry">
            <mxPoint x="360" y="290" as="sourcePoint" />
            <mxPoint x="460" y="290" as="targetPoint" />
          </mxGeometry>
        </mxCell>
        <mxCell id="GsuCEb-JJvYCm_2uKdxv-27" value="&lt;font style=&quot;font-size: 16px;&quot;&gt;0&lt;/font&gt;" style="edgeLabel;resizable=0;html=1;align=center;verticalAlign=middle;" parent="GsuCEb-JJvYCm_2uKdxv-26" connectable="0" vertex="1">
          <mxGeometry relative="1" as="geometry" />
        </mxCell>
        <mxCell id="GsuCEb-JJvYCm_2uKdxv-28" value="&lt;font style=&quot;font-size: 16px;&quot;&gt;Scan(101)&lt;/font&gt;&lt;font style=&quot;font-size: 16px;&quot;&gt;_Melay&lt;/font&gt;" style="text;html=1;align=center;verticalAlign=middle;resizable=0;points=[];autosize=1;strokeColor=none;fillColor=none;" parent="1" vertex="1">
          <mxGeometry x="190" y="130" width="150" height="30" as="geometry" />
        </mxCell>
      </root>
    </mxGraphModel>
  </diagram>
</mxfile>
